:FULLY-SPECIFIED
:DEGREES
199
root 4.1722 16.4213 -2.96795 58.1169 -86.8743 -51.1844
lowerback 1.89697 0.14863 0.873333
upperback 0.884186 0.203148 1.36666
thorax -0.159843 0.0952397 0.905298
lowerneck -17.5605 -1.90246 -2.19472
upperneck 15.7555 -3.06817 5.05965
head 7.87663 -1.10925 1.67414
rclavicle -1.98785e-015 4.57205e-015
rhumerus -29.7587 -2.24938 -82.846
rradius 21.6468
rwrist 29.5387
rhand -26.0077 2.23915
rfingers 7.12502
rthumb 0.538351 -27.7399
lclavicle -1.98785e-015 4.57205e-015
lhumerus -28.1106 7.68825 87.248
lradius 17.6278
lwrist -20.0437
lhand -24.6099 1.92238
lfingers 7.12502
lthumb 1.88835 31.8938
rfemur -15.0375 10.4656 28.4255
rtibia 21.5242
rfoot -11.2839 -16.2908
rtoes -3.38444
lfemur -19.6865 -2.57221 -18.9588
ltibia 63.3229
lfoot -7.66362 -1.76659
ltoes -21.5143
200
root 4.18693 16.4139 -2.98123 58.4046 -86.8933 -51.6225
lowerback 2.15056 0.193199 0.810404
upperback 0.940106 0.264016 1.36819
thorax -0.245446 0.125022 0.940215
lowerneck -17.4189 -1.9305 -2.31593
upperneck 15.6636 -3.10252 5.20988
head 7.82735 -1.12168 1.74002
rclavicle 0 1.16786e-014
rhumerus -29.4263 -2.29722 -82.7815
rradius 21.5097
rwrist 29.7374
rhand -26.0867 2.15776
rfingers 7.12502
rthumb 0.462048 -27.8215
lclavicle 0 1.16786e-014
lhumerus -28.1338 7.22578 87.4546
lradius 17.9266
lwrist -19.25
lhand -25.1367 1.89275
lfingers 7.12502
lthumb 1.37955 31.868
rfemur -14.4707 10.7943 28.5956
rtibia 21.5348
rfoot -11.59 -16.7215
rtoes -3.45851
lfemur -21.0187 -2.42277 -18.9401
ltibia 64.3975
lfoot -8.64859 -0.17952
ltoes -20.9321
201
root 4.20135 16.4061 -2.99274 58.7978 -86.8886 -52.1473
lowerback 2.31416 0.232825 0.835354
upperback 1.02655 0.317608 1.33871
thorax -0.248767 0.151475 0.894346
lowerneck -17.3241 -1.9688 -2.39597
upperneck 15.6073 -3.16149 5.35178
head 7.79854 -1.1432 1.79338
rclavicle -7.95139e-015 -9.79014e-015
rhumerus -29.0588 -2.40468 -82.7745
rradius 21.4107
rwrist 29.8282
rhand -26.1105 2.07881
rfingers 7.12502
rthumb 0.439028 -27.9005
lclavicle -7.95139e-015 -9.79014e-015
lhumerus -28.0599 7.07882 87.494
lradius 18.1272
lwrist -18.9326
lhand -25.5237 1.79352
lfingers 7.12502
lthumb 1.00578 31.7709
rfemur -13.9329 11.0425 28.8013
rtibia 21.6216
rfoot -11.9625 -17.1117
rtoes -3.47063
lfemur -22.3271 -2.38722 -18.8961
ltibia 65.2
lfoot -9.74658 1.19034
ltoes -20.3428
202
root 4.21366 16.3981 -3.0038 59.4181 -86.9486 -52.794
lowerback 2.35434 0.281839 0.828135
upperback 1.07363 0.382433 1.281
thorax -0.223334 0.183992 0.837612
lowerneck -17.2339 -1.9976 -2.44706
upperneck 15.6046 -3.21392 5.47152
head 7.78727 -1.16163 1.83563
rclavicle 1.19271e-015 5.8393e-015
rhumerus -28.6872 -2.72311 -82.7177
rradius 21.2653
rwrist 30.1938
rhand -26.2392 2.05385
rfingers 7.12502
rthumb 0.314698 -27.9257
lclavicle 1.19271e-015 5.8393e-015
lhumerus -27.9891 6.81134 87.5586
lradius 18.319
lwrist -18.597
lhand -25.8948 1.78938
lfingers 7.12502
lthumb 0.647356 31.7681
rfemur -13.5249 11.3506 28.9228
rtibia 21.7095
rfoot -12.2407 -17.4933
rtoes -3.63693
lfemur -23.6779 -2.34491 -18.9164
ltibia 65.7266
lfoot -10.7239 2.17839
ltoes -19.7736
203
root 4.22799 16.3923 -3.01423 58.8549 -86.9974 -52.2541
lowerback 2.43779 0.329187 0.839589
upperback 1.09872 0.446782 1.18316
thorax -0.244044 0.216552 0.728973
lowerneck -17.1603 -2.03313 -2.4588
upperneck 15.6676 -3.28665 5.57497
head 7.80078 -1.18817 1.86384
rclavicle -1.59028e-015 7.26806e-015
rhumerus -28.3492 -3.23936 -82.6497
rradius 21.1562
rwrist 30.759
rhand -26.2523 1.93277
rfingers 7.12502
rthumb 0.302051 -28.0468
lclavicle -1.59028e-015 7.26806e-015
lhumerus -27.9301 6.58421 87.56
lradius 18.52
lwrist -18.3066
lhand -26.1711 1.72583
lfingers 7.12502
lthumb 0.380477 31.7052
rfemur -13.0973 11.6998 29.0152
rtibia 21.817
rfoot -12.7408 -17.9444
rtoes -3.48379
lfemur -25.0203 -2.4347 -18.9641
ltibia 65.9631
lfoot -11.6383 3.00708
ltoes -18.9744
204
root 4.24105 16.3819 -3.02421 60.0719 -87.0875 -53.4837
lowerback 2.47526 0.383007 0.815323
upperback 1.119 0.518198 1.13219
thorax -0.244476 0.252361 0.688344
lowerneck -17.1369 -2.04676 -2.5167
upperneck 15.8467 -3.31657 5.64253
head 7.85961 -1.19844 1.89327
rclavicle -3.97569e-015 -1.42754e-014
rhumerus -28.0434 -3.27263 -82.731
rradius 21.1576
rwrist 30.6327
rhand -26.2573 1.88635
rfingers 7.12502
rthumb 0.297231 -28.0932
lclavicle -3.97569e-015 -1.42754e-014
lhumerus -27.86 6.37495 87.5981
lradius 18.7039
lwrist -17.9752
lhand -26.3508 1.6401
lfingers 7.12502
lthumb 0.206939 31.6197
rfemur -12.7278 12.0131 29.1303
rtibia 21.9603
rfoot -13.1217 -18.2882
rtoes -3.45435
lfemur -26.3 -2.48682 -18.9862
ltibia 65.933
lfoot -12.511 3.56244
ltoes -18.4196
205
root 4.25192 16.374 -3.03155 60.0391 -87.1367 -53.4741
lowerback 2.51201 0.431077 0.875805
upperback 1.14364 0.583694 1.04435
thorax -0.238688 0.285598 0.562614
lowerneck -17.1406 -2.09296 -2.57561
upperneck 16.037 -3.39843 5.74337
head 7.93015 -1.22969 1.92775
rclavicle -1.98785e-015 -6.08778e-015
rhumerus -27.7956 -3.27964 -82.8422
rradius 21.2295
rwrist 30.443
rhand -26.3534 1.85821
rfingers 7.12502
rthumb 0.204425 -28.1214
lclavicle -1.98785e-015 -6.08778e-015
lhumerus -27.7775 6.10525 87.6151
lradius 18.8843
lwrist -17.6574
lhand -26.4069 1.7357
lfingers 7.12502
lthumb 0.152781 31.7154
rfemur -12.3386 12.2582 29.2437
rtibia 22.1212
rfoot -13.5452 -18.6598
rtoes -3.82455
lfemur -27.4883 -2.64427 -19.0191
ltibia 65.6095
lfoot -13.1242 3.8973
ltoes -18.6925
